# xmcd
#
# Track frame offsets:
#	150
#	13392
#	22944
#	43976
#	57521
#	75713
#	86039
#	101585
#	113360
#	130707
#	147956
#	166018
#	182281
#	195250
#	211327
#	229248
#	249722
#
# Disc length: 3602 seconds
#
# Revision: 0
# Processed by: cddbd v1.5.2PL0 Copyright (c) Steve Scherf et al.
# Submitted via: audiograbber 1.83.01
#
DISCID=da0e1011
DTITLE=Windy City Strugglers - Time Comes Around
DYEAR=2009
DGENRE=Blues
TTITLE0=I Call My Baby Sugar
TTITLE1=Raggy Blues
TTITLE2=Can't Get Back
TTITLE3=Born In The Desert
TTITLE4=Snow On The Desert Road
TTITLE5=Kingfisher
TTITLE6=I Wanna Be With You
TTITLE7=Good Grief
TTITLE8=Contract With The Blues
TTITLE9=I Can Change
TTITLE10=Too Many Millionaires
TTITLE11=Struggle No More
TTITLE12=Ah Oui
TTITLE13=Margaret
TTITLE14=Unlikely Friends
TTITLE15=When The Tanks Roll In
TTITLE16=Waltz Of The Wind
EXTD=The Best of the Windy City Strugglers compilation
EXTT0=
EXTT1=
EXTT2=
EXTT3=
EXTT4=
EXTT5=
EXTT6=
EXTT7=
EXTT8=
EXTT9=
EXTT10=
EXTT11=
EXTT12=
EXTT13=
EXTT14=
EXTT15=
EXTT16=
PLAYORDER=
